# Blender 4.1.1
# www.blender.org
mtllib cube-1x1x1.mtl
o Cube
v -0.250000 0.250000 0.250000
v -0.250000 -0.250000 0.250000
v -0.250000 0.250000 -0.250000
v -0.250000 -0.250000 -0.250000
v 0.250000 0.250000 0.250000
v 0.250000 -0.250000 0.250000
v 0.250000 0.250000 -0.250000
v 0.250000 -0.250000 -0.250000
vn -0.0000 1.0000 -0.0000
vn -0.0000 -0.0000 -1.0000
vn 1.0000 -0.0000 -0.0000
vn -0.0000 -1.0000 -0.0000
vn -1.0000 -0.0000 -0.0000
vn -0.0000 -0.0000 1.0000
vt 0.005000 0.995000
vt 0.325000 0.665000
vt 0.325000 0.995000
vt 0.655000 0.995000
vt 0.335000 0.665000
vt 0.655000 0.665000
vt 0.995000 0.995000
vt 0.665000 0.665000
vt 0.995000 0.665000
vt 0.325000 0.335000
vt 0.005000 0.655000
vt 0.005000 0.335000
vt 0.995000 0.655000
vt 0.665000 0.335000
vt 0.995000 0.335000
vt 0.655000 0.655000
vt 0.335000 0.335000
vt 0.655000 0.335000
vt 0.005000 0.665000
vt 0.335000 0.995000
vt 0.665000 0.995000
vt 0.325000 0.655000
vt 0.665000 0.655000
vt 0.335000 0.655000
s 0
usemtl CubeMaterial
f 5/1/1 3/2/1 1/3/1
f 3/4/2 8/5/2 4/6/2
f 7/7/3 6/8/3 8/9/3
f 2/10/4 8/11/4 6/12/4
f 1/13/5 4/14/5 2/15/5
f 5/16/6 2/17/6 6/18/6
f 5/1/1 7/19/1 3/2/1
f 3/4/2 7/20/2 8/5/2
f 7/7/3 5/21/3 6/8/3
f 2/10/4 4/22/4 8/11/4
f 1/13/5 3/23/5 4/14/5
f 5/16/6 1/24/6 2/17/6
