# Blender 4.1.1
# www.blender.org
mtllib cube-tex-atlas.mtl
o Cube
v 1.000000 1.000000 -1.000000
v 1.000000 -1.000000 -1.000000
v 1.000000 1.000000 1.000000
v 1.000000 -1.000000 1.000000
v -1.000000 1.000000 -1.000000
v -1.000000 -1.000000 -1.000000
v -1.000000 1.000000 1.000000
v -1.000000 -1.000000 1.000000
vn -0.0000 1.0000 -0.0000
vn -0.0000 -0.0000 1.0000
vn -1.0000 -0.0000 -0.0000
vn -0.0000 -1.0000 -0.0000
vn 1.0000 -0.0000 -0.0000
vn -0.0000 -0.0000 -1.0000
vt 0.166016 0.996094
vt 0.004883 0.996094
vt 0.004883 0.833984
vt 0.166016 0.833984
vt 0.664062 0.833984
vt 0.664062 0.996094
vt 0.502930 0.996094
vt 0.502930 0.833984
vt 0.498047 0.833984
vt 0.498047 0.996094
vt 0.336914 0.996094
vt 0.336914 0.833984
vt 0.170898 0.833984
vt 0.332031 0.833984
vt 0.332031 0.996094
vt 0.170898 0.996094
vt 0.830078 0.833984
vt 0.830078 0.996094
vt 0.668945 0.996094
vt 0.668945 0.833984
vt 0.996094 0.833984
vt 0.996094 0.996094
vt 0.834961 0.996094
vt 0.834961 0.833984
s 0
usemtl Material
f 1/1/1 5/2/1 7/3/1 3/4/1
f 4/5/2 3/6/2 7/7/2 8/8/2
f 8/9/3 7/10/3 5/11/3 6/12/3
f 6/13/4 2/14/4 4/15/4 8/16/4
f 2/17/5 1/18/5 3/19/5 4/20/5
f 6/21/6 5/22/6 1/23/6 2/24/6
